<svg viewBox="0 0 14 16" fill="none" xmlns="http://www.w3.org/2000/svg">
	<path d="M6.833 1.387v.433l.429.062A4.17 4.17 0 0110.833 6v1.859c0 1.466.643 2.85 1.762 3.797a.668.668 0 01-.429 1.177h-11a.668.668 0 01-.434-1.172A4.97 4.97 0 002.5 7.86V6a4.17 4.17 0 013.571-4.118L6.5 1.82V.667a.166.166 0 11.333 0v.72z"
		  stroke="#5068A5"/>
	<mask id="a" fill="#fff">
		<path d="M6.668 16c1.207 0 2.217-.86 2.45-2h-4.9c.233 1.14 1.243 2 2.45 2z"/>
	</mask>
	<path d="M6.668 16c1.207 0 2.217-.86 2.45-2h-4.9c.233 1.14 1.243 2 2.45 2z" fill="#5068A5"/>
	<path d="M9.117 14l20.905 4.257 5.21-25.59H9.118V14zM4.22 14V-7.333h-26.115l5.21 25.59L4.22 14zm2.45 23.333c11.567 0 21.141-8.216 23.353-19.076l-41.809-8.514C-10.039 1.162-2.485-5.333 6.668-5.333v42.666zM9.116-7.333H4.22v42.666h4.898V-7.333zm-25.803 25.59C-14.474 29.117-4.9 37.333 6.668 37.333V-5.333c9.153 0 16.708 6.495 18.455 15.076l-41.809 8.514z"
		  fill="#5068A5" mask="url(#a)"/>
</svg>
