<svg viewBox="0 0 16 16" xmlns="http://www.w3.org/2000/svg">
	<path d="M13.657 2.343A7.948 7.948 0 008 0a7.948 7.948 0 00-5.657 2.343A7.948 7.948 0 000 8c0 2.137.832 4.146 2.343 5.657A7.948 7.948 0 008 16a7.948 7.948 0 005.657-2.343A7.948 7.948 0 0016 8a7.948 7.948 0 00-2.343-5.657zM8 15.063A7.07 7.07 0 01.937 8 7.07 7.07 0 018 .937 7.07 7.07 0 0115.063 8 7.07 7.07 0 018 15.063z"/>
	<path d="M8.502 7.531H7.498a1.039 1.039 0 010-2.075h2.008a.469.469 0 000-.937H8.47V3.48a.469.469 0 00-.938 0V4.52h-.033a1.977 1.977 0 00-1.975 1.975c0 1.089.886 1.975 1.975 1.975h1.004a1.039 1.039 0 010 2.075H6.494a.469.469 0 000 .937H7.53v1.038a.469.469 0 10.938 0V11.48h.033a1.977 1.977 0 001.975-1.975 1.977 1.977 0 00-1.975-1.975z"/>
</svg>
